#!OML:ASF E:\Mandelcareful walks\Project 1\Capture day 1\Session 1\Subject1.ASF
:FULLY-SPECIFIED
:DEGREES
907
root 22.5994 16.6189 -1.43543 628.398 -84.2416 455.957
lowerback 13.4006 -1.51658 2.54684
upperback 5.97609 -1.96474 0.646253
thorax -1.2845 -1.06708 -0.479691
lowerneck -24.6549 2.81843 0.182048
upperneck 25.8867 6.11925 -7.83089
head 13.0983 1.47425 -1.9863
rclavicle 2.62396e-014 -4.77083e-015
rhumerus -25.7173 3.00403 -78.3767
rradius 39.4895
rwrist -21.1069
rhand -13.3192 -28.3621
rfingers 7.12502
rthumb 12.7855 -57.9506
lclavicle 2.62396e-014 -4.77083e-015
lhumerus -30.5385 0.123468 87.9659
lradius 27.9637
lwrist 13.1741
lhand -21.7518 -15.1972
lfingers 7.12502
lthumb 4.64842 14.7318
rfemur -23.2453 -8.79207 16.6078
rtibia 34.8543
rfoot -16.4174 -8.13677
rtoes 13.1444
lfemur -16.8882 15.5782 -15.9921
ltibia 63.3893
lfoot -11.2071 9.16226
ltoes -4.7019
908
root 22.5277 16.6159 -1.48039 627.924 -84.4298 456.304
lowerback 13.8157 -1.46131 2.75789
upperback 6.02214 -1.86009 0.684793
thorax -1.45924 -1.01716 -0.562424
lowerneck -24.6823 3.84507 1.07638
upperneck 26.9129 7.55389 -8.61804
head 13.6908 2.02459 -2.20426
rclavicle 1.59028e-015 -1.90833e-014
rhumerus -25.402 3.02883 -78.1762
rradius 39.1001
rwrist -21.3267
rhand -13.3747 -28.7485
rfingers 7.12502
rthumb 12.732 -58.3404
lclavicle 1.59028e-015 -1.90833e-014
lhumerus -30.547 0.365057 87.8925
lradius 27.9742
lwrist 13.3099
lhand -21.5614 -15.4444
lfingers 7.12502
lthumb 4.83233 14.4805
rfemur -22.7805 -8.61641 16.9404
rtibia 34.8322
rfoot -16.7836 -8.25005
rtoes 13.3093
lfemur -18.5468 16.0987 -16.0765
ltibia 63.7382
lfoot -11.8168 9.57281
ltoes -4.701
909
root 22.4585 16.6084 -1.52076 628.672 -84.3812 455.538
lowerback 14.0429 -1.37015 2.78587
upperback 6.16495 -1.74387 0.627424
thorax -1.42918 -0.961366 -0.65179
lowerneck -24.7425 4.506 1.4836
upperneck 27.591 8.51171 -8.96555
head 14.0991 2.39329 -2.24396
rclavicle 5.96354e-015 1.11319e-014
rhumerus -25.0693 2.71532 -77.8895
rradius 39.0926
rwrist -21.3068
rhand -13.3296 -29.6563
rfingers 7.12502
rthumb 12.7754 -59.2454
lclavicle 5.96354e-015 1.11319e-014
lhumerus -30.3541 0.49877 87.8211
lradius 28.0744
lwrist 13.365
lhand -21.3579 -15.3213
lfingers 7.12502
lthumb 5.02882 14.5991
rfemur -22.4691 -8.62638 16.9984
rtibia 34.866
rfoot -17.1404 -8.28277
rtoes 13.4485
lfemur -20.2757 16.4837 -16.5374
ltibia 63.7059
lfoot -12.5409 10.0428
ltoes -5.52339
910
root 22.385 16.6061 -1.55755 631.516 -84.4008 452.714
lowerback 14.101 -1.31129 2.90126
upperback 6.33471 -1.66419 0.624519
thorax -1.28141 -0.921248 -0.733134
lowerneck -24.6177 4.99082 1.57711
upperneck 27.9277 9.24153 -9.08359
head 14.2851 2.68378 -2.17257
rclavicle -2.0276e-014 2.22639e-014
rhumerus -24.9766 2.41117 -77.5099
rradius 39.1402
rwrist -21.4141
rhand -13.3472 -29.0265
rfingers 7.12502
rthumb 12.7585 -58.6167
lclavicle -2.0276e-014 2.22639e-014
lhumerus -30.1669 0.673445 87.8017
lradius 28.2353
lwrist 13.4862
lhand -21.1329 -15.3325
lfingers 7.12502
lthumb 5.24605 14.5826
rfemur -22.186 -8.77518 17.1037
rtibia 34.9776
rfoot -17.5685 -8.34952
rtoes 13.726
lfemur -21.8502 16.5308 -16.9584
ltibia 63.2551
lfoot -13.4362 10.3247
ltoes -3.6054
911
root 22.3085 16.6052 -1.59123 633.382 -84.5135 450.805
lowerback 14.2444 -1.26283 3.02666
upperback 6.41738 -1.58709 0.656054
thorax -1.26957 -0.883189 -0.780294
lowerneck -24.1797 5.62776 1.9697
upperneck 28.1102 10.1546 -9.50964
head 14.3962 3.05531 -2.23971
rclavicle -3.57812e-015 7.15625e-015
rhumerus -25.0763 2.25202 -77.2039
rradius 39.2773
rwrist -21.4978
rhand -13.2311 -29.1594
rfingers 7.12502
rthumb 12.8704 -58.7425
lclavicle -3.57812e-015 7.15625e-015
lhumerus -30.2445 0.952119 87.7798
lradius 28.4602
lwrist 13.5313
lhand -20.9696 -15.1126
lfingers 7.12502
lthumb 5.40372 14.7985
rfemur -21.8651 -8.77875 17.3013
rtibia 35.1398
rfoot -17.9281 -8.48518
rtoes 13.9634
lfemur -23.2018 16.4509 -17.2554
ltibia 62.3913
lfoot -14.279 10.4053
ltoes -2.58909
912
root 22.238 16.6013 -1.62407 634.438 -84.5659 449.774
lowerback 14.469 -1.16878 3.08662
upperback 6.43849 -1.4518 0.604247
thorax -1.36427 -0.816374 -0.884047
lowerneck -23.9161 6.27954 2.66584
upperneck 28.4383 11.045 -10.0792
head 14.6505 3.41739 -2.4221
rclavicle -1.51076e-014 -3.89618e-014
rhumerus -25.1092 1.85961 -77.0189
rradius 39.1565
rwrist -21.3353
rhand -13.3292 -29.354
rfingers 7.12502
rthumb 12.7758 -58.9431
lclavicle -1.51076e-014 -3.89618e-014
lhumerus -30.2806 0.834216 87.7825
lradius 28.5896
lwrist 13.6348
lhand -20.8684 -14.6726
lfingers 7.12502
lthumb 5.50137 15.236
rfemur -21.6326 -8.61604 17.4271
rtibia 35.2935
rfoot -18.3129 -8.62474
rtoes 14.9848
lfemur -24.5949 16.2611 -17.6381
ltibia 61.1735
lfoot -15.1217 10.5494
ltoes -1.90629
913
root 22.1677 16.5948 -1.65365 636.266 -84.7263 447.984
lowerback 14.7134 -1.10311 3.31541
upperback 6.45768 -1.3308 0.549011
thorax -1.47372 -0.754181 -1.08467
lowerneck -23.7366 6.90371 3.48008
upperneck 28.827 11.8614 -10.6265
head 14.9686 3.7593 -2.63043
rclavicle -2.38542e-015 4.21423e-014
rhumerus -25.1366 1.53886 -76.9156
rradius 38.8871
rwrist -21.2238
rhand -14.037 -28.7325
rfingers 7.12502
rthumb 12.0935 -58.363
lclavicle -2.38542e-015 4.21423e-014
lhumerus -30.2995 0.488771 87.8066
lradius 28.6777
lwrist 13.8081
lhand -20.8202 -14.4732
lfingers 7.12502
lthumb 5.5479 15.4342
rfemur -21.3572 -8.55322 17.6509
rtibia 35.4054
rfoot -18.8632 -8.57215
rtoes 16.7557
lfemur -25.9394 15.971 -17.883
ltibia 59.6596
lfoot -16.0052 10.7574
ltoes -1.25502
914
root 22.092 16.589 -1.67946 638.468 -84.8849 445.709
lowerback 14.918 -1.06596 3.50322
upperback 6.58844 -1.26294 0.52361
thorax -1.44407 -0.719606 -1.22555
lowerneck -24.0134 7.59771 3.94658
upperneck 29.5466 12.8073 -10.6892
head 15.4976 4.15166 -2.5471
rclavicle 5.1684e-015 1.27222e-014
rhumerus -25.0686 1.31307 -76.7898
rradius 38.6998
rwrist -21.0938
rhand -14.2049 -28.6296
rfingers 7.12502
rthumb 11.9315 -58.2696
lclavicle 5.1684e-015 1.27222e-014
lhumerus -30.2236 0.37114 87.8217
lradius 28.743
lwrist 13.8821
lhand -20.7864 -14.021
lfingers 7.12502
lthumb 5.5806 15.8856
rfemur -20.9364 -8.65542 17.8763
rtibia 35.4612
rfoot -19.324 -8.49912
rtoes 17.4009
lfemur -27.0369 15.6285 -18.0486
ltibia 57.8742
lfoot -16.7646 11.0617
ltoes -1.44533
915
root 22.0154 16.5901 -1.70312 640.322 -84.9349 443.832
lowerback 14.9802 -0.976855 3.55897
upperback 6.78063 -1.15437 0.492119
thorax -1.26989 -0.664802 -1.30843
lowerneck -24.4999 8.03027 4.18475
upperneck 30.39 13.4033 -10.5482
head 16.0745 4.38272 -2.40794
rclavicle 4.77083e-015 -3.81667e-014
rhumerus -24.9585 1.03403 -76.5938
rradius 38.6826
rwrist -20.9714
rhand -13.8185 -29.3311
rfingers 7.12502
rthumb 12.3041 -58.9491
lclavicle 4.77083e-015 -3.81667e-014
lhumerus -29.9597 0.242544 87.8819
lradius 28.7072
lwrist 14.0222
lhand -20.7042 -13.2279
lfingers 7.12502
lthumb 5.65991 16.6765
rfemur -20.5675 -8.78547 18.0125
rtibia 35.4367
rfoot -19.6034 -8.5602
rtoes 17.0687
lfemur -28.009 15.1922 -18.2772
ltibia 55.8702
lfoot -17.5548 11.3453
ltoes -1.24769
916
root 21.9371 16.5946 -1.72134 641.635 -84.9806 442.639
lowerback 14.9266 -0.943273 3.55873
upperback 6.7155 -1.10599 0.434911
thorax -1.30915 -0.638525 -1.37598
lowerneck -24.1759 8.54413 4.67576
upperneck 31.2381 14.0438 -10.5275
head 16.5267 4.6699 -2.37049
rclavicle -7.95139e-016 -2.78299e-014
rhumerus -25.2668 1.24302 -76.5671
rradius 38.5369
rwrist -21.0668
rhand -13.8019 -29.3457
rfingers 7.12502
rthumb 12.3202 -58.9627
lclavicle -7.95139e-016 -2.78299e-014
lhumerus -30.2474 0.25597 87.8263
lradius 28.6282
lwrist 13.8451
lhand -20.887 -13.2478
lfingers 7.12502
lthumb 5.48346 16.6612
rfemur -20.3304 -8.97279 18.1396
rtibia 35.3389
rfoot -19.8064 -8.54088
rtoes 16.7561
lfemur -28.9509 14.6779 -18.5035
ltibia 53.6709
lfoot -18.3002 11.523
ltoes -0.734349
